<?xml version="1.0" encoding="UTF-8"?>
<svg id="Layer_3" data-name="Layer 3" xmlns="http://www.w3.org/2000/svg" viewBox="0 0 1102 553">
  <defs>
    <style>
      .cls-1 {
        fill: #fff;
      }
    </style>
  </defs>
  <path class="cls-1" d="M940,267c-16.77-26.41-38.07-55.52-65-85-13.18-14.42-26.29-27.39-39-39h-128v-72.94c0-12.74-10.32-23.06-23.06-23.06H220.06c-12.74,0-23.06,10.32-23.06,23.06v5.94h122.5c7.46,0,13.5,6.04,13.5,13.5,0,3.73-1.51,7.1-3.95,9.55-2.45,2.44-5.82,3.95-9.55,3.95h-122.5v26h68.5c7.46,0,13.5,6.04,13.5,13.5,0,3.73-1.51,7.1-3.95,9.55-2.45,2.44-5.82,3.95-9.55,3.95h-68.5v26h93.5c7.46,0,13.5,6.04,13.5,13.5,0,3.73-1.51,7.1-3.95,9.55-2.45,2.44-5.82,3.95-9.55,3.95h-93.5v41h34.5c7.46,0,13.5,6.04,13.5,13.5,0,3.73-1.51,7.1-3.95,9.55-2.45,2.44-5.82,3.95-9.55,3.95h-34.5v121.94c0,12.74,10.32,23.06,23.06,23.06h28.94c0-46.39,37.61-84,84-84s84,37.61,84,84h267.94c.35,0,.71-.01,1.06-.03v.03h22c0-46.39,37.61-84,84-84s83.82,37.43,84,83.67c3.15.9,21.06,5.73,38-4.67,15.41-9.46,23.96-27.8,22-47,1.33-34.33,2.67-68.67,4-103ZM721,250v-85.22h93.22l79.11,85.22h-172.33Z"/>
  <path class="cls-1" d="M332.5,349c-40.04,0-72.5,32.46-72.5,72.5s32.46,72.5,72.5,72.5,72.5-32.46,72.5-72.5-32.46-72.5-72.5-72.5ZM332,463c-22.64,0-41-18.36-41-41s18.36-41,41-41,41,18.36,41,41-18.36,41-41,41Z"/>
  <path class="cls-1" d="M791.5,349c-40.04,0-72.5,32.46-72.5,72.5s32.46,72.5,72.5,72.5,72.5-32.46,72.5-72.5-32.46-72.5-72.5-72.5ZM791,463c-22.64,0-41-18.36-41-41s18.36-41,41-41,41,18.36,41,41-18.36,41-41,41Z"/>
  <path class="cls-1" d="M210,103v26h-108.5c-7.46,0-13.5-5.82-13.5-13,0-3.59,1.51-6.84,3.95-9.2,2.45-2.35,5.82-3.8,9.55-3.8h108.5Z"/>
  <path class="cls-1" d="M202,55v21h-108.5c-7.46,0-13.5-4.7-13.5-10.5,0-2.9,1.51-5.52,3.95-7.43,2.45-1.9,5.82-3.07,9.55-3.07h108.5Z"/>
  <path class="cls-1" d="M200,156v26h-83.5c-7.46,0-13.5-5.82-13.5-13,0-3.59,1.51-6.84,3.95-9.2,2.45-2.35,5.82-3.8,9.55-3.8h83.5Z"/>
  <path class="cls-1" d="M197.07,281.19l-.13-30.99,83.5-.34c7.46-.03,13.53,6.88,13.56,15.44.02,4.28-1.48,8.16-3.91,10.98-2.44,2.81-5.8,4.56-9.53,4.57l-83.5.34Z"/>
</svg>