<?xml version="1.0" encoding="UTF-8"?>
<svg id="Layer_2" data-name="Layer 2" xmlns="http://www.w3.org/2000/svg" viewBox="0 0 1040.82 577.89">
  <defs>
    <style>
      .cls-1 {
        stroke: snow;
      }

      .cls-1, .cls-2 {
        fill: none;
        stroke-miterlimit: 10;
        stroke-width: 20px;
      }

      .cls-2 {
        stroke: #fff;
      }
    </style>
  </defs>
  <path class="cls-2" d="M835.72,144.06l-119.74-.72V30.08H62v450.18h49.81c-.32-3.1-.47-6.26-.47-9.44,0-52.46,42.53-94.99,94.98-94.99s94.98,42.53,94.98,94.99c0,3.19-.15,6.34-.47,9.44h426c-.33-3.22-.5-6.47-.5-9.78,0-52.46,42.52-94.99,94.98-94.99s94.98,42.53,94.98,94.99c0,3.31-.17,6.56-.5,9.78h45.41l28.78-189.97-154.28-146.22ZM721.22,269.77v-92.25h97.64l97.64,94.34-195.28-2.09Z"/>
  <circle class="cls-1" cx="205.44" cy="475.11" r="67.89"/>
  <circle class="cls-1" cx="822.06" cy="475.11" r="67.89"/>
</svg>