<?xml version="1.0" encoding="UTF-8"?>
<svg id="Layer_2" data-name="Layer 2" xmlns="http://www.w3.org/2000/svg" viewBox="0 0 277.24 277.24">
  <defs>
    <style>
      .cls-1 {
        fill: none;
        stroke: #fff;
        stroke-miterlimit: 10;
        stroke-width: 10px;
      }
    </style>
  </defs>
  <path class="cls-1" d="M239.04,123.88c-1.2-8.1-3.39-16.18-6.67-24.09-3.28-7.91-7.44-15.18-12.32-21.75l18.06-28.6c-3.26-3.64-6.7-7.08-10.31-10.31l-28.62,18.07c-13.46-10-29.24-16.53-45.83-18.98l-7.46-33.01c-4.83-.27-9.7-.26-14.58,0l-7.45,33c-8.1,1.2-16.18,3.39-24.09,6.67s-15.18,7.44-21.75,12.32l-28.6-18.06c-3.64,3.26-7.08,6.7-10.31,10.31l18.07,28.62c-10,13.46-16.53,29.24-18.98,45.83l-33.01,7.46c-.27,4.83-.26,9.7,0,14.58l33,7.45c1.2,8.1,3.39,16.18,6.67,24.09s7.44,15.18,12.32,21.75l-18.06,28.6c3.26,3.64,6.7,7.08,10.31,10.31l28.62-18.07c13.46,10,29.24,16.53,45.83,18.98l7.46,33.01c4.83.27,9.7.26,14.58,0l7.45-33c8.1-1.2,16.18-3.39,24.09-6.67,7.91-3.28,15.18-7.44,21.75-12.32l28.6,18.06c3.64-3.26,7.08-6.7,10.31-10.31l-18.07-28.62c10-13.46,16.53-29.24,18.98-45.83l33.01-7.46c.27-4.83.26-9.7,0-14.58l-33-7.45Z"/>
  <circle class="cls-1" cx="138.62" cy="138.62" r="72.26"/>
</svg>