<?xml version="1.0" encoding="UTF-8"?>
<svg id="Layer_1" xmlns="http://www.w3.org/2000/svg" version="1.1" viewBox="0 0 110 135">
  <!-- Generator: Adobe Illustrator 29.1.0, SVG Export Plug-In . SVG Version: 2.1.0 Build 142)  -->
  <defs>
    <style>
      .st0 {
        fill: #fff;
        fill-rule: evenodd;
      }
    </style>
  </defs>
  <path class="st0" d="M37.6,46.9c-3.4.7-6.7,2-9.6,4-.5.3-1.1.2-1.5-.1h0s-4.3-4.3-4.3-4.3c-.2-.2-.6-.2-.8,0l-4.8,4.8c-.2.2-.2.6,0,.8l4.3,4.3c.4.4.5,1.1,0,1.6-.9,1.4-1.8,2.9-2.4,4.5-.7,1.6-1.2,3.3-1.5,5-.1.6-.6.9-1.1.9h-6.1c-.3,0-.6.3-.6.6h0v6.7h0c0,.3.3.6.6.6h6.1c.6,0,1.1.4,1.2,1,.3,1.7.8,3.4,1.5,4.9.7,1.6,1.5,3.2,2.5,4.6.3.5.2,1.1-.1,1.5h0s-4.3,4.3-4.3,4.3c-.2.2-.2.6,0,.8l4.8,4.8c.2.2.6.2.8,0l4.3-4.3c.4-.4,1.1-.5,1.6,0,1.4.9,2.9,1.8,4.5,2.4,1.6.7,3.3,1.2,5,1.5.6.1.9.6.9,1.1v6.1c0,.3.3.6.6.6h6.7c.3,0,.6-.3.6-.6v-6.1c0-.6.4-1.1,1-1.2,1.7-.3,3.4-.8,4.9-1.5,1.6-.7,3.2-1.5,4.6-2.5.5-.3,1.1-.2,1.5.1h0s4.3,4.3,4.3,4.3c.2.2.6.2.8,0l4.8-4.8c.2-.2.2-.6,0-.8l-4.3-4.3c-.4-.4-.5-1.1,0-1.6.9-1.4,1.8-2.9,2.4-4.5.7-1.6,1.2-3.3,1.5-5,.1-.6.6-.9,1.1-.9h6.1c.3,0,.6-.3.6-.6h0v-6.7h0c0-.3-.3-.6-.6-.6h-6.1c-.6,0-1.1-.4-1.2-1-.3-1.7-.8-3.4-1.5-4.9-.7-1.6-1.5-3.2-2.5-4.6-.3-.5-.2-1.1.1-1.5h0s4.3-4.3,4.3-4.3c.2-.2.2-.6,0-.8l-4.8-4.8c-.2-.2-.6-.2-.8,0l-4.3,4.3c-.4.4-1.1.5-1.6,0-1.4-.9-2.9-1.8-4.5-2.4-1.6-.7-3.3-1.2-5-1.5-.6-.1-.9-.6-.9-1.1v-6.1c0-.3-.3-.6-.6-.6h-6.7c-.3,0-.6.3-.6.6v6.1c0,.6-.4,1.1-1,1.2ZM69.5,54.5l.8-.8c1.1-1.1,1.1-3,0-4.2l-4.8-4.8c-.6-.6-1.3-.9-2.1-.9-1.4,0-2,.8-2.8,1.6-.5-1.2-1.1-2.9-1.3-4.1,0-.6-.6-1-1.2-1h-4.5c0,0,0,0,0,0v-4.8h.1c0,0,4.4,0,4.4,0,.6,0,1-.4,1.1-.9.2-1.2.6-2.4,1.1-3.5.5-1.1,1-2.2,1.7-3.2.4-.5.4-1.1,0-1.6l-3.1-3.1h0s0-.1,0-.1l3.4-3.4h0s.1,0,.1,0l3.1,3.1h0c.4.4,1,.5,1.5.1,1-.7,2.1-1.3,3.2-1.7,1.1-.5,2.3-.8,3.5-1,.6,0,1-.6,1-1.2v-4.4h0c0,0,4.8,0,4.8,0h0v4.5c0,.6.4,1,.9,1.1,1.2.2,2.4.6,3.5,1.1,1.1.5,2.2,1,3.2,1.7.5.4,1.1.4,1.6,0l3.1-3.1h0s.1,0,.1,0l3.4,3.4h0s0,.1,0,.1l-3.1,3.1h0c-.4.4-.5,1-.1,1.5.7,1,1.3,2.1,1.7,3.2.5,1.1.8,2.3,1,3.5,0,.6.6,1,1.2,1h4.5c0,0,0,0,0,0v4.8h-.1c0,0-4.4,0-4.4,0-.6,0-1,.4-1.1.9-.2,1.2-.6,2.4-1.1,3.5-.5,1.1-1,2.2-1.7,3.2-.4.5-.4,1.1,0,1.6l3.1,3.1h0s0,.1,0,.1l-3.4,3.4h0s-.1,0-.1,0l-3.1-3.1h0c-.4-.4-1-.5-1.5-.1-1,.7-2.1,1.3-3.2,1.7-1.1.5-2.3.8-3.5,1-.6,0-1,.6-1,1.2v4.4h0c0,.1-4.8.1-4.8.1h0s0-.1,0-.1v-4.4c0-.6-.4-1-.9-1.1-1.5-.3-2.9-.7-4.2-1.4h0ZM58.8,47.3c-.7-1.4-1.3-3-1.7-4.6h-3.4c-1.3,0-2.4-1.1-2.4-2.4h0v-4.8h0c0-1.3,1.1-2.4,2.4-2.4h3.4c.5-2.1,1.3-4.1,2.4-5.9l-2.4-2.4h0c-1-1-1-2.5,0-3.5l3.4-3.4h0c1-1,2.5-.9,3.5,0l2.4,2.4c1.8-1.1,3.8-1.9,5.9-2.4v-3.4c0-1.3,1.1-2.4,2.4-2.4h4.8c1.3,0,2.4,1.1,2.4,2.4v3.4c2.1.5,4.1,1.3,5.9,2.4l2.4-2.4h0c1-1,2.5-.9,3.5,0l3.4,3.4h0c1,1,.9,2.5,0,3.5l-2.4,2.4c1.1,1.8,1.9,3.8,2.4,5.9h3.4c1.3,0,2.4,1.1,2.4,2.4h0v4.8h0c0,1.3-1.1,2.4-2.4,2.4h-3.4c-.5,2.1-1.3,4.1-2.4,5.9l2.4,2.4h0c1,1,1,2.5,0,3.5l-3.4,3.4h0c-1,1-2.5.9-3.5,0l-2.4-2.4c-1.8,1.1-3.8,1.9-5.9,2.4v3.4c0,1.3-1.1,2.4-2.4,2.4h0s-4.8,0-4.8,0h0c-1.3,0-2.4-1.1-2.4-2.4v-3.4c-1.6-.4-3.1-1-4.6-1.7l-1.1,1.1c1.7,2.7,2.9,5.6,3.6,8.7h5.1c1.6,0,2.9,1.3,2.9,2.9h0v6.7h0c0,1.6-1.3,2.9-2.9,2.9h-5.1c-.7,3.1-1.9,6-3.6,8.7l3.6,3.6c1.1,1.1,1.1,3,0,4.2l-4.8,4.8c-1.1,1.1-3,1.1-4.2,0l-3.6-3.6c-2.7,1.7-5.6,2.9-8.7,3.6v5.1c0,1.6-1.3,2.9-2.9,2.9h-6.7c-1.6,0-2.9-1.3-2.9-2.9v-5.1c-3.1-.7-6-1.9-8.7-3.6l-3.6,3.6c-1.1,1.1-3,1.1-4.2,0l-4.8-4.8c-1.1-1.1-1.1-3,0-4.2l3.6-3.6c-1.7-2.7-2.9-5.6-3.6-8.7h-5.1c-1.6,0-2.9-1.3-2.9-2.9h0v-6.7h0c0-1.6,1.3-2.9,2.9-2.9h5.1c.7-3.1,1.9-6,3.6-8.7l-3.6-3.6c-1.1-1.1-1.1-3,0-4.2l4.8-4.8c1.1-1.1,3-1.1,4.2,0l3.6,3.6c2.7-1.7,5.6-2.9,8.7-3.6v-5.1c0-1.6,1.3-2.9,2.9-2.9h6.7c1.6,0,2.9,1.3,2.9,2.9v5.1c3.1.7,6,1.9,8.7,3.6l1.1-1.1h0ZM42.6,58.1c7.9,0,14.3,6.4,14.3,14.3s-6.4,14.3-14.3,14.3-14.3-6.4-14.3-14.3,6.4-14.3,14.3-14.3ZM42.6,55.7c9.2,0,16.6,7.4,16.6,16.6s-7.4,16.6-16.6,16.6-16.6-7.4-16.6-16.6,7.4-16.6,16.6-16.6ZM77.1,27.9c5.5,0,9.9,4.4,9.9,9.9s-4.4,9.9-9.9,9.9-9.9-4.4-9.9-9.9,4.4-9.9,9.9-9.9ZM77.1,25.6c6.8,0,12.3,5.5,12.3,12.3s-5.5,12.3-12.3,12.3-12.3-5.5-12.3-12.3,5.5-12.3,12.3-12.3Z"/>
</svg>