<svg xmlns="http://www.w3.org/2000/svg" data-name="Layer 1" viewBox="0 0 100 125" x="0px" y="0px"><title>delivery</title><path d="M94.74,45.064l-10.25-12.1a1.1,1.1,0,0,0-.837-.388H68.659V25.2a1.1,1.1,0,0,0-1.1-1.1H6.1A1.1,1.1,0,0,0,5,25.2V68.193a1.1,1.1,0,0,0,1.1,1.1h8.437a7.7,7.7,0,0,0,15.237,0H73.113a7.7,7.7,0,0,0,15.237,0H93.9a1.1,1.1,0,0,0,1.1-1.1V45.773A1.1,1.1,0,0,0,94.74,45.064ZM7.2,26.3H66.463V67.1H29.781c-.012-.084-.032-.166-.047-.249-.019-.106-.037-.212-.06-.317-.031-.139-.068-.275-.106-.41-.028-.1-.053-.2-.084-.293-.046-.143-.1-.282-.154-.42-.033-.085-.063-.172-.1-.255-.069-.162-.148-.318-.228-.473-.029-.057-.054-.116-.084-.171q-.173-.315-.371-.61c-.028-.04-.059-.078-.087-.118-.108-.154-.219-.306-.338-.452-.053-.064-.11-.124-.165-.187-.1-.116-.2-.231-.31-.341-.066-.067-.135-.129-.2-.193-.1-.1-.208-.2-.318-.289-.075-.064-.152-.124-.23-.185q-.163-.129-.333-.249c-.083-.058-.167-.113-.252-.168-.116-.075-.233-.146-.353-.215-.088-.05-.177-.1-.267-.146-.123-.064-.248-.123-.375-.18-.093-.042-.185-.084-.28-.122-.131-.053-.264-.1-.4-.147-.094-.032-.188-.066-.284-.094-.142-.043-.287-.077-.432-.112-.093-.022-.185-.047-.28-.065-.161-.032-.326-.054-.491-.075-.081-.011-.161-.026-.243-.034a7.509,7.509,0,0,0-1.509,0c-.082.008-.162.023-.244.034-.164.021-.329.043-.49.075-.095.018-.188.044-.282.066-.144.034-.288.068-.429.11-.1.029-.192.063-.288.1-.133.046-.265.093-.395.145-.1.039-.19.081-.284.124-.124.056-.248.115-.369.178-.092.048-.183.1-.272.149-.118.067-.234.138-.348.211-.087.056-.173.112-.257.171-.111.079-.219.161-.327.245-.079.062-.159.124-.237.19-.106.09-.207.185-.309.281-.07.067-.143.132-.211.2-.1.1-.2.216-.3.327-.059.067-.121.132-.178.2-.11.135-.212.276-.312.418-.037.051-.077.1-.113.152q-.2.292-.367.6c-.036.067-.067.138-.1.206-.073.144-.146.288-.21.437-.039.09-.072.184-.108.277-.05.131-.1.262-.145.4-.033.1-.06.207-.089.311-.036.129-.072.259-.1.391-.025.11-.044.222-.064.333-.014.08-.033.158-.045.239H7.2ZM22.153,73.7a5.517,5.517,0,0,1-5.51-5.509v0a5.521,5.521,0,0,1,3.874-5.263A5.511,5.511,0,1,1,22.153,73.7Zm58.579,0a5.511,5.511,0,1,1,5.511-5.511A5.518,5.518,0,0,1,80.732,73.7ZM92.805,67.1H88.35a7.7,7.7,0,0,0-15.237,0H68.659V34.774H83.145l9.66,11.4ZM26.468,31.647a1.1,1.1,0,0,1,1.1-1.1H59.443a1.1,1.1,0,1,1,0,2.2H27.566A1.1,1.1,0,0,1,26.468,31.647Zm-4.986,0a1.1,1.1,0,0,1,1.1-1.1h.955a1.1,1.1,0,0,1,0,2.2H22.58A1.1,1.1,0,0,1,21.482,31.647ZM34.735,36.72a1.1,1.1,0,0,1,0,2.2H30.692a1.1,1.1,0,1,1,0-2.2Zm25.806,1.1a1.1,1.1,0,0,1-1.1,1.1H38.955a1.1,1.1,0,0,1,0-2.2H59.443A1.1,1.1,0,0,1,60.541,37.818Zm0,6.171a1.1,1.1,0,0,1-1.1,1.1H55.952a1.1,1.1,0,1,1,0-2.2h3.491A1.1,1.1,0,0,1,60.541,43.989Zm-39.059,0a1.1,1.1,0,0,1,1.1-1.1H51.234a1.1,1.1,0,1,1,0,2.2H22.58A1.1,1.1,0,0,1,21.482,43.989ZM81.3,36.752H72.033a1.1,1.1,0,0,0-1.1,1.1v12.01a1.1,1.1,0,0,0,1.1,1.1H88.926a1.1,1.1,0,0,0,1.1-1.1V46.847a1.1,1.1,0,0,0-.26-.709l-7.624-9A1.1,1.1,0,0,0,81.3,36.752Zm6.526,12.009H73.13V38.947h7.663l7.035,8.3Z"/></svg>