<?xml version="1.0" encoding="UTF-8"?>
<svg id="Layer_1" xmlns="http://www.w3.org/2000/svg" version="1.1" viewBox="0 0 100 125">
  <!-- Generator: Adobe Illustrator 29.1.0, SVG Export Plug-In . SVG Version: 2.1.0 Build 142)  -->
  <defs>
    <style>
      .st0 {
        fill: #fff;
      }
    </style>
  </defs>
  <path class="st0" d="M94.7,45.1l-10.2-12.1c-.2-.2-.5-.4-.8-.4h-15v-7.4c0-.6-.5-1.1-1.1-1.1H6.1c-.6,0-1.1.5-1.1,1.1h0v43c0,.6.5,1.1,1.1,1.1h8.4c.6,4.2,4.5,7.1,8.7,6.5,3.4-.5,6-3.1,6.5-6.5h43.3c.6,4.2,4.5,7.1,8.7,6.5,3.4-.5,6-3.1,6.5-6.5h5.6c.6,0,1.1-.5,1.1-1.1v-22.4c0-.3,0-.5-.3-.7ZM7.2,26.3h59.3v40.8H29.8c0,0,0-.2,0-.2,0-.1,0-.2,0-.3,0-.1,0-.3-.1-.4,0,0,0-.2,0-.3,0-.1-.1-.3-.2-.4,0,0,0-.2-.1-.3,0-.2-.1-.3-.2-.5,0,0,0-.1,0-.2-.1-.2-.2-.4-.4-.6,0,0,0,0,0-.1-.1-.2-.2-.3-.3-.5,0,0-.1-.1-.2-.2-.1-.1-.2-.2-.3-.3,0,0-.1-.1-.2-.2-.1,0-.2-.2-.3-.3,0,0-.2-.1-.2-.2-.1,0-.2-.2-.3-.2,0,0-.2-.1-.3-.2-.1,0-.2-.1-.4-.2,0,0-.2,0-.3-.1-.1,0-.2-.1-.4-.2,0,0-.2,0-.3-.1-.1,0-.3,0-.4-.1,0,0-.2,0-.3,0-.1,0-.3,0-.4-.1,0,0-.2,0-.3,0-.2,0-.3,0-.5,0,0,0-.2,0-.2,0-.5,0-1,0-1.5,0,0,0-.2,0-.2,0-.2,0-.3,0-.5,0,0,0-.2,0-.3,0-.1,0-.3,0-.4.1-.1,0-.2,0-.3,0-.1,0-.3,0-.4.1-.1,0-.2,0-.3.1-.1,0-.2.1-.4.2,0,0-.2,0-.3.1-.1,0-.2.1-.3.2,0,0-.2.1-.3.2-.1,0-.2.2-.3.2,0,0-.2.1-.2.2-.1,0-.2.2-.3.3,0,0-.1.1-.2.2-.1,0-.2.2-.3.3,0,0-.1.1-.2.2-.1.1-.2.3-.3.4,0,0,0,0-.1.2-.1.2-.3.4-.4.6,0,0,0,.1-.1.2,0,.1-.1.3-.2.4,0,0,0,.2-.1.3,0,.1-.1.3-.1.4,0,0,0,.2,0,.3,0,.1,0,.3-.1.4,0,.1,0,.2,0,.3,0,0,0,.2,0,.2h-7.3V26.3ZM22.2,73.7c-3,0-5.5-2.5-5.5-5.5h0c0-2.4,1.6-4.5,3.9-5.3,2.9-.9,6,.7,6.9,3.6.9,2.9-.7,6-3.6,6.9-.5.2-1.1.3-1.6.2ZM80.7,73.7c-3,0-5.5-2.5-5.5-5.5s2.5-5.5,5.5-5.5,5.5,2.5,5.5,5.5c0,3-2.5,5.5-5.5,5.5ZM92.8,67.1h-4.5c-.6-4.2-4.5-7.1-8.7-6.5-3.4.5-6,3.1-6.5,6.5h-4.5v-32.3h14.5l9.7,11.4v20.9ZM26.5,31.6c0-.6.5-1.1,1.1-1.1h31.9c.6,0,1.1.5,1.1,1.1,0,.6-.5,1.1-1.1,1.1h-31.9c-.6,0-1.1-.5-1.1-1.1ZM21.5,31.6c0-.6.5-1.1,1.1-1.1h1c.6,0,1.1.5,1.1,1.1,0,.6-.5,1.1-1.1,1.1h-1c-.6,0-1.1-.5-1.1-1.1ZM34.7,36.7c.6,0,1.1.5,1.1,1.1s-.5,1.1-1.1,1.1h-4c-.6,0-1.1-.5-1.1-1.1s.5-1.1,1.1-1.1h4ZM60.5,37.8c0,.6-.5,1.1-1.1,1.1h-20.5c-.6,0-1.1-.5-1.1-1.1s.5-1.1,1.1-1.1h20.5c.6,0,1.1.5,1.1,1.1h0ZM60.5,44c0,.6-.5,1.1-1.1,1.1h-3.5c-.6,0-1.1-.5-1.1-1.1s.5-1.1,1.1-1.1h3.5c.6,0,1.1.5,1.1,1.1h0ZM21.5,44c0-.6.5-1.1,1.1-1.1h28.7c.6,0,1.1.5,1.1,1.1s-.5,1.1-1.1,1.1h-28.7c-.6,0-1.1-.5-1.1-1.1h0s0,0,0,0ZM81.3,36.8h-9.3c-.6,0-1.1.5-1.1,1.1v12c0,.6.5,1.1,1.1,1.1h16.9c.6,0,1.1-.5,1.1-1.1v-3c0-.3,0-.5-.3-.7l-7.6-9c-.2-.2-.5-.4-.8-.4ZM87.8,48.8h-14.7v-9.8h7.7l7,8.3v1.5Z"/>
</svg>