<?xml version="1.0" encoding="UTF-8"?>
<svg id="Drawing" xmlns="http://www.w3.org/2000/svg" viewBox="0 0 1197.67 1197.67">
  <defs>
    <style>
      .cls-1 {
        fill: none;
        stroke: #fff;
        stroke-miterlimit: 10;
        stroke-width: 20px;
      }
    </style>
  </defs>
  <path class="cls-1" d="M871.01,464.81c16.75,40.76,25.99,85.39,25.99,132.19,0,192.2-155.8,348-348,348s-348-155.8-348-348,155.8-348,348-348c137.11,0,255.7,79.29,312.41,194.51"/>
  <path class="cls-1" d="M824.61,490.81c13.16,33.51,20.39,70.01,20.39,108.19,0,163.48-132.52,296-296,296s-296-132.52-296-296,132.52-296,296-296c111.95,0,209.39,62.15,259.68,153.83"/>
  <polygon class="cls-1" points="549 368.21 555.11 387 574.86 387 558.88 398.61 564.98 417.4 549 405.79 533.02 417.4 539.12 398.61 523.14 387 542.89 387 549 368.21"/>
  <polygon class="cls-1" points="688.87 412 690.28 416.36 694.86 416.36 691.16 419.05 692.57 423.4 688.87 420.71 685.16 423.4 686.58 419.05 682.87 416.36 687.45 416.36 688.87 412"/>
  <polygon class="cls-1" points="408.87 411.64 410.28 416 414.86 416 411.16 418.69 412.57 423.05 408.87 420.36 405.16 423.05 406.58 418.69 402.87 416 407.45 416 408.87 411.64"/>
  <path class="cls-1" d="M430,503l-58,66,195,151s262-310,441-286c0,0-230.44-32-446.22,165l-131.78-96Z"/>
</svg>