<?xml version="1.0" encoding="UTF-8"?>
<svg id="Drawing" xmlns="http://www.w3.org/2000/svg" viewBox="0 0 1197.67 1197.67">
  <defs>
    <style>
      .cls-1 {
        fill: none;
        stroke: #fff;
        stroke-miterlimit: 10;
        stroke-width: 20px;
      }
    </style>
  </defs>
  <path class="cls-1" d="M880.24,486.6c14.22,34.61,22.07,72.51,22.07,112.25,0,163.2-132.3,295.5-295.5,295.5s-295.5-132.3-295.5-295.5,132.3-295.5,295.5-295.5c116.43,0,217.12,67.33,265.28,165.17"/>
  <path class="cls-1" d="M840.84,508.68c11.17,28.45,17.31,59.45,17.31,91.87,0,138.82-112.53,251.34-251.34,251.34s-251.34-112.53-251.34-251.34,112.53-251.34,251.34-251.34c95.06,0,177.8,52.77,220.5,130.62"/>
  <polygon class="cls-1" points="606.81 404.57 611.99 420.53 628.77 420.53 615.2 430.39 620.38 446.35 606.81 436.49 593.23 446.35 598.42 430.39 584.85 420.53 601.62 420.53 606.81 404.57"/>
  <polygon class="cls-1" points="725.57 441.76 726.78 445.46 730.67 445.46 727.52 447.74 728.72 451.44 725.57 449.16 722.43 451.44 723.63 447.74 720.48 445.46 724.37 445.46 725.57 441.76"/>
  <polygon class="cls-1" points="487.82 441.46 489.02 445.16 492.91 445.16 489.76 447.44 490.96 451.14 487.82 448.85 484.67 451.14 485.87 447.44 482.72 445.16 486.61 445.16 487.82 441.46"/>
  <path class="cls-1" d="M505.76,519.03l-49.25,56.04,165.58,128.22s222.47-263.23,374.47-242.85c0,0-195.68-27.17-378.9,140.11l-111.9-81.52Z"/>
</svg>